<?xml version="1.0" encoding="UTF-8"?>
<svg width="512" height="512" viewBox="0 0 512 512" xmlns="http://www.w3.org/2000/svg">
  <rect width="512" height="512" fill="#1e3a8a" rx="64"/>
  <g transform="translate(96, 96)">
    <!-- CNC 머신 본체 -->
    <rect x="40" y="60" width="240" height="140" fill="#3b82f6" rx="12"/>
    <rect x="56" y="76" width="208" height="108" fill="#60a5fa" rx="8"/>

    <!-- 스핀들 -->
    <circle cx="160" cy="130" r="36" fill="#1e3a8a"/>
    <circle cx="160" cy="130" r="18" fill="#ffffff"/>
    <circle cx="160" cy="130" r="8" fill="#1e3a8a"/>

    <!-- 앤드밀 공구들 -->
    <rect x="20" y="220" width="16" height="56" fill="#fbbf24" rx="8"/>
    <rect x="56" y="220" width="16" height="56" fill="#fbbf24" rx="8"/>
    <rect x="92" y="220" width="16" height="56" fill="#fbbf24" rx="8"/>
    <rect x="128" y="220" width="16" height="56" fill="#fbbf24" rx="8"/>
    <rect x="164" y="220" width="16" height="56" fill="#fbbf24" rx="8"/>
    <rect x="200" y="220" width="16" height="56" fill="#fbbf24" rx="8"/>
    <rect x="236" y="220" width="16" height="56" fill="#fbbf24" rx="8"/>
    <rect x="272" y="220" width="16" height="56" fill="#fbbf24" rx="8"/>

    <!-- 베이스 플레이트 -->
    <rect x="0" y="268" width="320" height="24" fill="#374151" rx="8"/>
  </g>
</svg>
