<?xml version="1.0" encoding="UTF-8"?>
<svg width="192" height="192" viewBox="0 0 192 192" xmlns="http://www.w3.org/2000/svg">
  <rect width="192" height="192" fill="#1e3a8a" rx="24"/>
  <g transform="translate(42, 42)">
    <!-- CNC 머신 아이콘 -->
    <rect x="14" y="28" width="80" height="52" fill="#3b82f6" rx="6"/>
    <rect x="20" y="34" width="68" height="40" fill="#60a5fa" rx="3"/>
    <circle cx="54" cy="54" r="12" fill="#1e3a8a"/>
    <circle cx="54" cy="54" r="6" fill="#ffffff"/>

    <!-- 공구들 (앤드밀) -->
    <rect x="6" y="86" width="6" height="20" fill="#fbbf24" rx="3"/>
    <rect x="20" y="86" width="6" height="20" fill="#fbbf24" rx="3"/>
    <rect x="34" y="86" width="6" height="20" fill="#fbbf24" rx="3"/>
    <rect x="48" y="86" width="6" height="20" fill="#fbbf24" rx="3"/>
    <rect x="62" y="86" width="6" height="20" fill="#fbbf24" rx="3"/>
    <rect x="76" y="86" width="6" height="20" fill="#fbbf24" rx="3"/>
    <rect x="90" y="86" width="6" height="20" fill="#fbbf24" rx="3"/>

    <!-- 베이스 -->
    <rect x="0" y="100" width="108" height="8" fill="#374151" rx="4"/>
  </g>
</svg>
