<?xml version="1.0" encoding="UTF-8"?>
<svg width="512" height="512" viewBox="0 0 512 512" xmlns="http://www.w3.org/2000/svg">
  <!-- Maskable icon: safe area is 80% center -->
  <rect width="512" height="512" fill="#1e3a8a"/>
  <g transform="translate(128, 128)">
    <!-- CNC 머신 본체 (중앙 80% 영역에 맞춤) -->
    <rect x="20" y="30" width="216" height="120" fill="#3b82f6" rx="10"/>
    <rect x="32" y="42" width="192" height="96" fill="#60a5fa" rx="6"/>

    <!-- 스핀들 -->
    <circle cx="128" cy="90" r="28" fill="#1e3a8a"/>
    <circle cx="128" cy="90" r="14" fill="#ffffff"/>
    <circle cx="128" cy="90" r="6" fill="#1e3a8a"/>

    <!-- 앤드밀 공구들 -->
    <rect x="16" y="164" width="12" height="44" fill="#fbbf24" rx="6"/>
    <rect x="44" y="164" width="12" height="44" fill="#fbbf24" rx="6"/>
    <rect x="72" y="164" width="12" height="44" fill="#fbbf24" rx="6"/>
    <rect x="100" y="164" width="12" height="44" fill="#fbbf24" rx="6"/>
    <rect x="128" y="164" width="12" height="44" fill="#fbbf24" rx="6"/>
    <rect x="156" y="164" width="12" height="44" fill="#fbbf24" rx="6"/>
    <rect x="184" y="164" width="12" height="44" fill="#fbbf24" rx="6"/>
    <rect x="212" y="164" width="12" height="44" fill="#fbbf24" rx="6"/>

    <!-- 베이스 -->
    <rect x="0" y="200" width="256" height="18" fill="#374151" rx="6"/>
  </g>
</svg>
