<?xml version="1.0" encoding="UTF-8"?>
<svg width="144" height="144" viewBox="0 0 144 144" xmlns="http://www.w3.org/2000/svg">
  <rect width="144" height="144" fill="#1e3a8a" rx="20"/>
  <g transform="translate(32, 32)">
    <!-- CNC 머신 아이콘 -->
    <rect x="10" y="20" width="60" height="40" fill="#3b82f6" rx="4"/>
    <rect x="15" y="25" width="50" height="30" fill="#60a5fa" rx="2"/>
    <circle cx="40" cy="40" r="8" fill="#1e3a8a"/>
    <circle cx="40" cy="40" r="4" fill="#ffffff"/>
    
    <!-- 공구들 -->
    <rect x="5" y="65" width="4" height="15" fill="#fbbf24" rx="2"/>
    <rect x="15" y="65" width="4" height="15" fill="#fbbf24" rx="2"/>
    <rect x="25" y="65" width="4" height="15" fill="#fbbf24" rx="2"/>
    <rect x="35" y="65" width="4" height="15" fill="#fbbf24" rx="2"/>
    <rect x="45" y="65" width="4" height="15" fill="#fbbf24" rx="2"/>
    <rect x="55" y="65" width="4" height="15" fill="#fbbf24" rx="2"/>
    <rect x="65" y="65" width="4" height="15" fill="#fbbf24" rx="2"/>
    <rect x="75" y="65" width="4" height="15" fill="#fbbf24" rx="2"/>
    
    <!-- 베이스 -->
    <rect x="0" y="75" width="80" height="5" fill="#374151" rx="2"/>
  </g>
</svg> 